<svg width="80" height="80" fill="none" xmlns="http://www.w3.org/2000/svg"><path d="M72.5 7.5h-65v65h65v-65z" fill="#fff" stroke="#F9B122" stroke-miterlimit="10"/><path d="M72.5 54.1h-65v18.4h65V54.1zm0-26.9h-65v26.9h65V27.2zM18.9 7.5H7.5v19.7h11.4V7.5zm53.6 0H61.1v19.7h11.4V7.5zm-44.7 8.6c1.8 0 3.3-1.5 3.3-3.3 0-1.8-1.5-3.3-3.3-3.3-1.8 0-3.2 1.5-3.2 3.3 0 1.8 1.4 3.3 3.2 3.3zm0 9c1.8 0 3.3-1.5 3.3-3.3 0-1.8-1.5-3.3-3.3-3.3-1.8 0-3.3 1.5-3.3 3.3.1 1.8 1.5 3.3 3.3 3.3zm24.4-9c1.8 0 3.3-1.5 3.3-3.3 0-1.8-1.5-3.2-3.3-3.2-1.8 0-3.2 1.4-3.2 3.2 0 1.8 1.4 3.3 3.2 3.3zm0 9c1.8 0 3.3-1.5 3.3-3.3 0-1.8-1.5-3.3-3.3-3.3-1.8 0-3.2 1.5-3.2 3.3 0 1.8 1.4 3.3 3.2 3.3z" fill="#FFE9C7" stroke="#F9B122" stroke-miterlimit="10"/><path d="M21 67.2l7.8-7.8m2.9 10.1L44.2 57m7 10.2l7.8-7.8m0-14.9l-7.8-7.8m-2.9 10.1L35.8 34.4m-7 10.1L21 36.7" stroke="#F4BC69" stroke-width=".75" stroke-miterlimit="10"/></svg>