<svg width="80" height="80" fill="none" xmlns="http://www.w3.org/2000/svg"><g clip-path="url(#clip0_42_1212)" stroke-miterlimit="10"><path d="M40 10.5H18.3v11.9H40V10.5z" fill="#FFE9C7" stroke="#F9B122"/><path d="M61.7 10.5H40v11.9h21.7V10.5zM29.2 22.4H7.5v11.9h21.7V22.4z" fill="#fff" stroke="#F9B122"/><path d="M50.9 22.4H29.2v11.9h21.7V22.4z" fill="#FFE9C7" stroke="#F9B122"/><path d="M72.5 22.4H50.8v11.9h21.7V22.4zM40 34.3H18.3v11.9H40V34.3z" fill="#fff" stroke="#F9B122"/><path d="M61.7 34.3H40v11.9h21.7V34.3zM29.2 46.2H7.5v11.9h21.7V46.2z" fill="#FFE9C7" stroke="#F9B122"/><path d="M50.9 46.2H29.2v11.9h21.7V46.2z" fill="#fff" stroke="#F9B122"/><path d="M72.5 46.2H50.8v11.9h21.7V46.2zM40 58.2H18.3v11.9H40V58.2z" fill="#FFE9C7" stroke="#F9B122"/><path d="M61.7 58.2H40v11.9h21.7V58.2z" fill="#fff" stroke="#F9B122"/><path d="M24.1 18.5l4.2-4.1m1.7 4.1l4.2-4.1m.8 16.1l4.1-4.2m1.8 4.2l4.1-4.2m.8 16.1l4.2-4.2m7 16l4.2-4.2m-9.5-7.6l4.2-4.2m7 16l4.2-4.2m-53.8 4.3l4.2-4.2m1.7 4.2l4.2-4.2m.7 16.1l4.2-4.2m1.7 4.2l4.2-4.2" stroke="#F4BC69" stroke-width=".75"/></g><defs><clipPath id="clip0_42_1212"><path fill="#fff" transform="translate(7 10)" d="M0 0h66v60.6H0z"/></clipPath></defs></svg>