<svg width="80" height="80" fill="none" xmlns="http://www.w3.org/2000/svg"><path d="M1.884 55.75c1.325 0 1.436 1.34 1.988 2.234.442.782 1.105 1.34 1.989 1.452 1.878.223 3.756-1.005 5.744-2.57.774-.67 1.547-.558 2.21-.558 1.326 0 1.436 1.34 1.988 2.234.442.782 1.105 1.34 1.989 1.453 1.878.223 3.756-1.006 5.745-2.57.773-.558 1.546-.558 2.21-.558 1.325 0 1.435 1.34 1.988 2.234.442.782 1.104 1.34 1.988 1.452 1.878.224 3.756-1.005 5.745-2.57.773-.67 2.43-2.122 3.093-2.122h38.555l-18.78-35.079-37.45-.223-19.002 35.19z" fill="#FFE9C7" stroke="#F9B122" stroke-miterlimit="10"/><path d="M15.472 30.725c1.326 0 1.436 1.34 1.989 2.234.442.782 1.104 1.34 1.988 1.452 1.878.224 3.756-1.005 5.745-2.569.773-.67 1.546-.559 2.21-.559m-.001-.111c1.326 0 1.436 1.34 1.989 2.234.442.782 1.105 1.34 1.988 1.452 1.878.224 3.756-1.005 5.745-2.57.773-.558 1.547-.558 2.21-.558" stroke="#F4BC69" stroke-width=".75" stroke-miterlimit="10"/><path d="M39.224 31.73c1.326 0 1.436 1.34 1.988 2.235.442.782 1.105 1.34 1.989 1.452 1.878.223 3.756-1.006 5.745-2.57.773-.67 1.546-.558 2.209-.558M8.623 43.349c1.325 0 1.436 1.34 1.988 2.234.442.782 1.105 1.34 1.989 1.453 1.878.223 3.756-1.006 5.744-2.57.774-.67 1.547-.559 2.21-.559m0-.111c1.326 0 1.436 1.34 1.988 2.234.442.782 1.105 1.34 1.989 1.452 1.878.224 3.756-1.005 5.745-2.57.773-.67 1.546-.558 2.209-.558" stroke="#F4BC69" stroke-width=".75" stroke-miterlimit="10"/><path d="M32.374 44.354c1.326 0 1.437 1.34 1.989 2.235.442.782 1.105 1.34 1.989 1.452 1.878.223 3.756-1.006 5.744-2.57.774-.558 1.547-.558 2.21-.558" stroke="#F4BC69" stroke-width=".75" stroke-miterlimit="10"/><path fill-rule="evenodd" clip-rule="evenodd" d="M44.747 55.75h27.177L58.336 30.501 44.747 55.748z" fill="#fff" stroke="#F9B122" stroke-miterlimit="10"/><path d="M33.148 20.559L13.925 56.308M45.3 20.559L25.746 56.867m31.706-36.308l-18.891 35.19m-36.677.001c1.325 0 1.436 1.34 1.988 2.234.442.782 1.105 1.34 1.989 1.452 1.878.223 3.756-1.005 5.744-2.57.774-.67 1.547-.558 2.21-.558 1.326 0 1.436 1.34 1.988 2.234.442.782 1.105 1.34 1.989 1.453 1.878.223 3.756-1.006 5.745-2.57.773-.558 1.546-.558 2.21-.558 1.325 0 1.435 1.34 1.988 2.234.442.782 1.104 1.34 1.988 1.452 1.878.224 3.756-1.005 5.745-2.57.773-.67 2.43-2.122 3.093-2.122h38.555l-18.78-35.079-37.45-.223-19.002 35.19z" stroke="#F9B122" stroke-miterlimit="10"/></svg>