<svg width="68" height="68" fill="none" xmlns="http://www.w3.org/2000/svg"><g clip-path="url(#clip0_42_1157)"><path d="M59.7 1.5H8v59.7h51.7V1.5zm2.4 59.7H5.5v5.3h56.6v-5.3z" fill="#FFE9C7" stroke="#F9B122" stroke-miterlimit="10"/><path d="M56.3 4.9H38.7v52.9h17.6V4.9zm-27.4 0H11.3v52.9h17.6V4.9z" fill="#fff"/><path d="M33.8 1.5v59.7" stroke="#F9B122" stroke-miterlimit="10"/><path d="M30.9 29.7v8.2m5.8-8.2v8.2" stroke="#E09317" stroke-miterlimit="10"/><path d="M14.5 24.8l11.3-11.4M14.5 27.7l11.3-11.4M14.5 35.6l11.3-11.3m15.8.5l11.3-11.4M41.6 27.7l11.3-11.4M41.6 35.6l11.3-11.3" stroke="#F4BC69" stroke-width=".75" stroke-miterlimit="10"/><path d="M28.9 4.9H11.3v52.9h17.6V4.9zm27.4 0H38.7v52.9h17.6V4.9z" stroke="#F9B122" stroke-miterlimit="10"/></g><defs><clipPath id="clip0_42_1157"><path fill="#fff" transform="translate(5 1)" d="M0 0h57.6v66H0z"/></clipPath></defs></svg>