<svg width="80" height="80" fill="none" xmlns="http://www.w3.org/2000/svg"><path d="M15.615 75.438h22.983" stroke="#F9B122" stroke-miterlimit="10"/><path fill="#fff" d="M15 50h22v25H15z"/><path d="M38.599 49.825H15.614" stroke="#F9B122" stroke-miterlimit="10"/><path d="M38.599 75.438c3.363 0 6.054-5.729 6.054-12.807 0-7.077-2.691-12.806-6.054-12.806-3.364 0-6.055 5.729-6.055 12.806 0 7.078 2.691 12.807 6.055 12.807z" fill="#FFE9C7" stroke="#F9B122" stroke-miterlimit="10"/><path d="M15.615 75.438c-3.364 0-6.054-5.729-6.054-12.807 0-7.077 2.69-12.806 6.054-12.806" fill="#fff"/><path d="M15.615 75.438c-3.364 0-6.054-5.729-6.054-12.807 0-7.077 2.69-12.806 6.054-12.806" stroke="#F9B122" stroke-miterlimit="10"/><path d="M27.948 75.438c-3.364 0-6.055-5.729-6.055-12.807 0-7.077 2.691-12.806 6.055-12.806" fill="#fff"/><path d="M27.948 75.438c-3.364 0-6.055-5.729-6.055-12.807 0-7.077 2.691-12.806 6.055-12.806" stroke="#F9B122" stroke-miterlimit="10"/><path d="M22.005 40.95l3.924-14.043h-8.184L33.778 5.899c.56-.674 1.681-.113 1.457.674l-3.924 14.042h8.297L23.463 41.623c-.56.787-1.682.113-1.458-.674zM66.74 7.584c2.018 0 3.7 1.685 3.7 3.707v57.744c0 2.022-1.682 3.707-3.7 3.707-2.018 0-3.7-1.685-3.7-3.707V11.29c0-2.022 1.682-3.707 3.7-3.707z" fill="#FFE9C7" stroke="#F9B122" stroke-miterlimit="10"/><path d="M63.04 17.695h-7.063m7.063 11.234h-7.063m7.063 11.234h-7.063m7.063 11.234h-7.063m7.063 11.234h-7.063" stroke="#F9B122" stroke-miterlimit="10"/></svg>