<svg width="80" height="80" viewBox="0 0 80 80" fill="none" xmlns="http://www.w3.org/2000/svg">
<path d="M72.5 7.5H7.5V72.5H72.5V7.5Z" fill="white" stroke="#F9B122" stroke-miterlimit="10"/>
<path d="M72.5 54.1001H7.5V72.5001H72.5V54.1001Z" fill="#FFE9C7" stroke="#F9B122" stroke-miterlimit="10"/>
<path d="M72.5 27.2H7.5V54.0999H72.5V27.2Z" fill="#FFE9C7" stroke="#F9B122" stroke-miterlimit="10"/>
<path d="M18.9 7.5H7.5V27.2H18.9V7.5Z" fill="#FFE9C7" stroke="#F9B122" stroke-miterlimit="10"/>
<path d="M72.5 7.5H61.1V27.2H72.5V7.5Z" fill="#FFE9C7" stroke="#F9B122" stroke-miterlimit="10"/>
<path d="M27.8 16.1C29.6 16.1 31.1 14.6 31.1 12.8C31.1 11 29.6 9.5 27.8 9.5C26 9.5 24.6 11 24.6 12.8C24.6 14.6 26 16.1 27.8 16.1Z" fill="#FFE9C7" stroke="#F9B122" stroke-miterlimit="10"/>
<path d="M27.8 25.1C29.6 25.1 31.1 23.6 31.1 21.8C31.1 20 29.6 18.5 27.8 18.5C26 18.5 24.5 20 24.5 21.8C24.6 23.6 26 25.1 27.8 25.1Z" fill="#FFE9C7" stroke="#F9B122" stroke-miterlimit="10"/>
<path d="M52.2 16.1001C54 16.1001 55.5 14.6001 55.5 12.8001C55.5 11.0001 54 9.6001 52.2 9.6001C50.4 9.6001 49 11.0001 49 12.8001C49 14.6001 50.4 16.1001 52.2 16.1001Z" fill="#FFE9C7" stroke="#F9B122" stroke-miterlimit="10"/>
<path d="M52.2 25.1C54 25.1 55.5 23.6 55.5 21.8C55.5 20 54 18.5 52.2 18.5C50.4 18.5 49 20 49 21.8C49 23.6 50.4 25.1 52.2 25.1Z" fill="#FFE9C7" stroke="#F9B122" stroke-miterlimit="10"/>
<path d="M21 67.1999L28.8 59.3999" stroke="#F4BC69" stroke-width="0.75" stroke-miterlimit="10"/>
<path d="M31.7 69.5L44.2 57" stroke="#F4BC69" stroke-width="0.75" stroke-miterlimit="10"/>
<path d="M51.2 67.1999L59 59.3999" stroke="#F4BC69" stroke-width="0.75" stroke-miterlimit="10"/>
<path d="M59 44.5L51.2 36.7" stroke="#F4BC69" stroke-width="0.75" stroke-miterlimit="10"/>
<path d="M48.3 46.7999L35.8 34.3999" stroke="#F4BC69" stroke-width="0.75" stroke-miterlimit="10"/>
<path d="M28.8 44.5L21 36.7" stroke="#F4BC69" stroke-width="0.75" stroke-miterlimit="10"/>
</svg>
