<svg width="80" height="80" viewBox="0 0 80 80" fill="none" xmlns="http://www.w3.org/2000/svg">
<path d="M1.88379 55.7493C3.20947 55.7493 3.31994 57.0899 3.87231 57.9837C4.31421 58.7657 4.97705 59.3243 5.86083 59.436C7.73888 59.6594 9.61693 58.4305 11.6055 56.8665C12.3788 56.1962 13.1521 56.3079 13.8149 56.3079C15.1406 56.3079 15.2511 57.6485 15.8034 58.5422C16.2453 59.3243 16.9082 59.8828 17.792 59.9946C19.67 60.218 21.5481 58.9891 23.5366 57.4251C24.3099 56.8665 25.0832 56.8665 25.7461 56.8665C27.0717 56.8665 27.1822 58.2071 27.7346 59.1008C28.1765 59.8828 28.8393 60.4414 29.7231 60.5531C31.6012 60.7766 33.4792 59.5477 35.4677 57.9837C36.241 57.3134 37.8981 55.861 38.561 55.861H77.1162L58.3357 20.782L20.8852 20.5586L1.88379 55.7493Z" fill="#FFE9C7" stroke="#F9B122" stroke-miterlimit="10"/>
<path d="M15.472 30.7249C16.7977 30.7249 16.9082 32.0655 17.4606 32.9592C17.9025 33.7412 18.5653 34.2998 19.4491 34.4115C21.3271 34.6349 23.2052 33.4061 25.1937 31.842C25.967 31.1717 26.7403 31.2834 27.4032 31.2834" stroke="#F4BC69" stroke-width="0.75" stroke-miterlimit="10"/>
<path d="M27.4032 31.1716C28.7289 31.1716 28.8394 32.5122 29.3917 33.406C29.8336 34.188 30.4965 34.7466 31.3802 34.8583C33.2583 35.0817 35.1363 33.8528 37.1249 32.2888C37.8982 31.7302 38.6715 31.7302 39.3343 31.7302" stroke="#F4BC69" stroke-width="0.75" stroke-miterlimit="10"/>
<path d="M39.2239 31.7302C40.5496 31.7302 40.66 33.0708 41.2124 33.9646C41.6543 34.7466 42.3171 35.3052 43.2009 35.4169C45.079 35.6403 46.957 34.4114 48.9455 32.8474C49.7189 32.1771 50.4922 32.2888 51.155 32.2888" stroke="#F4BC69" stroke-width="0.75" stroke-miterlimit="10"/>
<path d="M8.62268 43.3489C9.94836 43.3489 10.0588 44.6895 10.6112 45.5832C11.0531 46.3652 11.7159 46.9238 12.5997 47.0355C14.4778 47.259 16.3558 46.0301 18.3443 44.466C19.1177 43.7957 19.891 43.9075 20.5538 43.9075" stroke="#F4BC69" stroke-width="0.75" stroke-miterlimit="10"/>
<path d="M20.5538 43.7957C21.8795 43.7957 21.99 45.1363 22.5424 46.03C22.9842 46.812 23.6471 47.3706 24.5309 47.4823C26.4089 47.7057 28.287 46.4769 30.2755 44.9128C31.0488 44.2425 31.8221 44.3542 32.485 44.3542" stroke="#F4BC69" stroke-width="0.75" stroke-miterlimit="10"/>
<path d="M32.3745 44.3542C33.7002 44.3542 33.8107 45.6948 34.363 46.5886C34.8049 47.3706 35.4678 47.9292 36.3516 48.0409C38.2296 48.2643 40.1077 47.0354 42.0962 45.4714C42.8695 44.9128 43.6428 44.9128 44.3057 44.9128" stroke="#F4BC69" stroke-width="0.75" stroke-miterlimit="10"/>
<path fill-rule="evenodd" clip-rule="evenodd" d="M44.7474 55.7494H71.9239L58.3357 30.5015L44.7474 55.7494Z" fill="white" stroke="#F9B122" stroke-miterlimit="10"/>
<path d="M33.1478 20.5586L13.9254 56.3079" stroke="#F9B122" stroke-miterlimit="10"/>
<path d="M45.2999 20.5586L25.7461 56.8665" stroke="#F9B122" stroke-miterlimit="10"/>
<path d="M57.452 20.5586L38.561 55.7493" stroke="#F9B122" stroke-miterlimit="10"/>
<path d="M1.88379 55.7493C3.20947 55.7493 3.31994 57.0899 3.87231 57.9837C4.31421 58.7657 4.97705 59.3243 5.86083 59.436C7.73888 59.6594 9.61693 58.4305 11.6055 56.8665C12.3788 56.1962 13.1521 56.3079 13.8149 56.3079C15.1406 56.3079 15.2511 57.6485 15.8034 58.5422C16.2453 59.3243 16.9082 59.8828 17.792 59.9946C19.67 60.218 21.5481 58.9891 23.5366 57.4251C24.3099 56.8665 25.0832 56.8665 25.7461 56.8665C27.0717 56.8665 27.1822 58.2071 27.7346 59.1008C28.1765 59.8828 28.8393 60.4414 29.7231 60.5531C31.6012 60.7766 33.4792 59.5477 35.4677 57.9837C36.241 57.3134 37.8981 55.861 38.561 55.861H77.1162L58.3357 20.782L20.8852 20.5586L1.88379 55.7493Z" stroke="#F9B122" stroke-miterlimit="10"/>
</svg>
