<svg width="68" height="68" viewBox="0 0 68 68" fill="none" xmlns="http://www.w3.org/2000/svg">
<g clip-path="url(#clip0_42_1157)">
<path d="M59.7 1.5H8V61.2H59.7V1.5Z" fill="#FFE9C7" stroke="#F9B122" stroke-miterlimit="10"/>
<path d="M62.1 61.2H5.5V66.5H62.1V61.2Z" fill="#FFE9C7" stroke="#F9B122" stroke-miterlimit="10"/>
<path d="M56.3 4.8999H38.7V57.7999H56.3V4.8999Z" fill="white"/>
<path d="M28.9 4.8999H11.3V57.7999H28.9V4.8999Z" fill="white"/>
<path d="M33.8 1.5V61.2" stroke="#F9B122" stroke-miterlimit="10"/>
<path d="M30.9 29.7V37.9" stroke="#E09317" stroke-miterlimit="10"/>
<path d="M36.7 29.7V37.9" stroke="#E09317" stroke-miterlimit="10"/>
<path d="M14.5 24.7999L25.8 13.3999" stroke="#F4BC69" stroke-width="0.75" stroke-miterlimit="10"/>
<path d="M14.5 27.7L25.8 16.3" stroke="#F4BC69" stroke-width="0.75" stroke-miterlimit="10"/>
<path d="M14.5 35.6L25.8 24.3" stroke="#F4BC69" stroke-width="0.75" stroke-miterlimit="10"/>
<path d="M41.6 24.7999L52.9 13.3999" stroke="#F4BC69" stroke-width="0.75" stroke-miterlimit="10"/>
<path d="M41.6 27.7L52.9 16.3" stroke="#F4BC69" stroke-width="0.75" stroke-miterlimit="10"/>
<path d="M41.6 35.6L52.9 24.3" stroke="#F4BC69" stroke-width="0.75" stroke-miterlimit="10"/>
<path d="M28.9 4.8999H11.3V57.7999H28.9V4.8999Z" stroke="#F9B122" stroke-miterlimit="10"/>
<path d="M56.3 4.8999H38.7V57.7999H56.3V4.8999Z" stroke="#F9B122" stroke-miterlimit="10"/>
</g>
<defs>
<clipPath id="clip0_42_1157">
<rect width="57.6" height="66" fill="white" transform="translate(5 1)"/>
</clipPath>
</defs>
</svg>
