<svg width="80" height="80" viewBox="0 0 80 80" fill="none" xmlns="http://www.w3.org/2000/svg">
<path d="M15.6148 75.4382H38.5985" stroke="#F9B122" stroke-miterlimit="10"/>
<rect x="15" y="50" width="22" height="25" fill="white"/>
<path d="M38.5985 49.8245H15.6148" stroke="#F9B122" stroke-miterlimit="10"/>
<path d="M38.5986 75.4384C41.962 75.4384 44.6528 69.709 44.6528 62.6314C44.6528 55.5539 41.962 49.8245 38.5986 49.8245C35.2351 49.8245 32.5443 55.5539 32.5443 62.6314C32.5443 69.709 35.2351 75.4384 38.5986 75.4384Z" fill="#FFE9C7" stroke="#F9B122" stroke-miterlimit="10"/>
<path d="M15.6149 75.4384C12.2514 75.4384 9.56061 69.709 9.56061 62.6314C9.56061 55.5539 12.2514 49.8245 15.6149 49.8245" fill="white"/>
<path d="M15.6149 75.4384C12.2514 75.4384 9.56061 69.709 9.56061 62.6314C9.56061 55.5539 12.2514 49.8245 15.6149 49.8245" stroke="#F9B122" stroke-miterlimit="10"/>
<path d="M27.9476 75.4384C24.5841 75.4384 21.8933 69.709 21.8933 62.6314C21.8933 55.5539 24.5841 49.8245 27.9476 49.8245" fill="white"/>
<path d="M27.9476 75.4384C24.5841 75.4384 21.8933 69.709 21.8933 62.6314C21.8933 55.5539 24.5841 49.8245 27.9476 49.8245" stroke="#F9B122" stroke-miterlimit="10"/>
<path d="M22.0054 40.9493L25.9294 26.9066H17.745L33.7775 5.89864C34.3381 5.22459 35.4593 5.7863 35.235 6.57269L31.311 20.6154H39.6076L23.4629 41.6233C22.9023 42.4097 21.7812 41.7357 22.0054 40.9493Z" fill="#FFE9C7" stroke="#F9B122" stroke-miterlimit="10"/>
<path d="M66.7396 7.58398C68.7577 7.58398 70.4394 9.26911 70.4394 11.2913V69.0349C70.4394 71.0571 68.7577 72.7422 66.7396 72.7422C64.7215 72.7422 63.0398 71.0571 63.0398 69.0349V11.2913C63.0398 9.26911 64.7215 7.58398 66.7396 7.58398Z" fill="#FFE9C7" stroke="#F9B122" stroke-miterlimit="10"/>
<path d="M63.0398 17.6946H55.9765" stroke="#F9B122" stroke-miterlimit="10"/>
<path d="M63.0398 28.9287H55.9765" stroke="#F9B122" stroke-miterlimit="10"/>
<path d="M63.0398 40.1631H55.9765" stroke="#F9B122" stroke-miterlimit="10"/>
<path d="M63.0398 51.3972H55.9765" stroke="#F9B122" stroke-miterlimit="10"/>
<path d="M63.0398 62.6313H55.9765" stroke="#F9B122" stroke-miterlimit="10"/>
</svg>
